<svg width="872" height="872" viewBox="0 0 872 872" fill="none" xmlns="http://www.w3.org/2000/svg">
<g clip-path="url(#clip0_29_6)">
<rect x="844.382" y="105.645" width="742.807" height="742.807" rx="371.403" transform="rotate(96 844.382 105.645)" fill="#C24661"/>
<path d="M-44.996 359.852C-44.1746 355.614 -42.9821 351.345 -42.3839 347.838C-42.0441 345.845 -41.6693 343.844 -41.2626 341.836C-38.3699 327.554 -33.8657 312.922 -28.8959 298.653C-14.2831 256.698 13.7473 218.563 54.1633 186.182C77.2528 167.682 98.3093 149.092 123.677 133.24C146.871 118.747 167.704 106.385 192.883 96.439C242.52 76.831 290.646 51.7945 340.726 33.8583C366.556 24.6075 392.615 17.1912 418.445 7.84752C432.802 2.65389 446.818 -0.0148255 461.216 -4.38094C476.658 -9.06348 491.43 -14.8047 506.967 -17.5041C545.771 -24.2461 585.882 -32.9378 616.485 -17.394C656.258 2.80827 700.352 21.2824 722.909 57.3821C728.657 66.5806 731.138 79.7705 731.199 91.3477C731.239 99.0879 732.898 106.358 733.398 113.976C733.7 118.563 734.758 126.78 731.444 131.548C723.551 142.903 709.872 149.699 697.764 157.265C684.673 165.445 671.644 177.36 657.512 183.787C650.037 187.186 639.475 187.833 632.068 188.893C620.189 190.591 609.099 192.103 597.483 192.461C589.851 192.696 580.288 193.696 573.396 192.129C565.664 190.37 558.849 187.549 550.324 187.053C531.064 185.932 504.27 194.813 484.595 201.465C470.981 206.067 456.702 214.265 443.752 221.026C427.02 229.761 411.144 237.777 395.053 247.831C385.038 254.09 373.779 259.984 364.508 267.241C353.363 275.963 343.427 286.131 332.811 295.424C302.258 322.168 279.235 354.034 252.75 383.147C226.235 412.292 199.311 446.002 167.49 471.219C148.258 486.46 126.469 504.676 103.501 514.426C73.0503 527.351 52.8334 502.081 40.2661 487.006C27.6273 471.844 9.43671 461.066 -3.43233 446.089C-21.2731 425.326 -36.1322 401.794 -43.0874 375.905C-44.2776 371.474 -44.4659 367.172 -45.2731 362.853C-45.335 362.522 -45.3595 362.185 -45.3518 361.843C-45.3372 361.195 -45.2072 360.529 -44.996 359.852Z" fill="#671F2F"/>
<path d="M148.7 728.063C149.203 723.15 150.105 718.234 150.432 714.161C150.618 711.847 150.841 709.525 151.098 707.199C152.926 690.653 156.474 673.843 160.562 657.504C172.58 609.463 199.54 567.155 240.496 532.762C263.894 513.114 285.073 493.171 311.192 476.85C335.074 461.927 356.585 449.296 383.043 439.909C435.203 421.404 485.219 396.369 538.015 379.872C565.245 371.364 592.894 365.037 620.115 356.419C635.246 351.629 650.239 349.78 665.491 345.968C681.848 341.88 697.379 336.483 714.023 334.738C755.591 330.38 798.4 323.847 833.106 344.967C878.213 372.417 927.857 398.231 955.712 442.807C962.809 454.166 966.723 469.922 967.856 483.556C968.614 492.672 971.088 501.383 972.335 510.397C973.086 515.825 974.994 525.595 971.83 530.903C964.296 543.542 950.05 550.281 937.583 558.071C924.105 566.493 911.037 579.318 896.265 585.581C888.452 588.893 877.027 588.681 869.072 589.245C856.313 590.149 844.395 590.907 831.799 590.257C823.523 589.83 813.217 590.125 805.579 587.644C797.011 584.861 789.341 580.912 780.027 579.541C758.982 576.445 730.67 584.43 709.891 590.446C695.514 594.608 680.745 602.942 667.289 609.707C649.903 618.447 633.38 626.419 616.813 636.771C606.502 643.215 594.804 649.116 585.392 656.803C574.08 666.044 564.214 677.097 553.529 687.058C522.777 715.723 500.684 751.113 474.572 782.943C448.432 814.807 422.267 852.008 389.995 878.759C370.49 894.927 348.48 914.362 324.408 923.721C292.492 936.129 268.181 904.516 253.127 885.611C237.987 866.597 217.216 852.232 201.843 833.414C180.531 807.327 162.205 778.254 152.256 747.136C150.553 741.811 149.952 736.729 148.676 731.57C148.578 731.175 148.52 730.776 148.497 730.374C148.453 729.613 148.533 728.841 148.7 728.063Z" fill="#671F2F"/>
</g>
<rect x="879.551" y="77.1647" width="806.807" height="806.807" rx="403.403" transform="rotate(96 879.551 77.1647)" stroke="#FF436C" stroke-opacity="0.27" stroke-width="64"/>
<defs>
<clipPath id="clip0_29_6">
<rect x="844.382" y="105.645" width="742.807" height="742.807" rx="371.403" transform="rotate(96 844.382 105.645)" fill="white"/>
</clipPath>
</defs>
</svg>
