<svg width="1452" height="862" viewBox="0 0 1452 862" fill="none" xmlns="http://www.w3.org/2000/svg">
<g filter="url(#filter0_f_77_112)">
<path d="M305.5 103L310.679 112.474H300.321L305.5 103Z" fill="white"/>
<path d="M305.5 133L310.679 123.526H300.321L305.5 133Z" fill="white"/>
<path d="M320 118L310.679 123.526V112.474L320 118Z" fill="white"/>
<path d="M291 118L300.321 112.474V123.526L291 118Z" fill="white"/>
<path d="M300.321 112.474H310.679V123.526H300.321V112.474Z" fill="white"/>
<path d="M512.5 332L517.679 341.474H507.321L512.5 332Z" fill="white"/>
<path d="M512.5 362L517.679 352.526H507.321L512.5 362Z" fill="white"/>
<path d="M527 347L517.679 352.526V341.474L527 347Z" fill="white"/>
<path d="M498 347L507.321 341.474V352.526L498 347Z" fill="white"/>
<path d="M507.321 341.474H517.679V352.526H507.321V341.474Z" fill="white"/>
<path d="M925.5 217L930.679 226.474H920.321L925.5 217Z" fill="white"/>
<path d="M925.5 247L930.679 237.526H920.321L925.5 247Z" fill="white"/>
<path d="M940 232L930.679 237.526V226.474L940 232Z" fill="white"/>
<path d="M911 232L920.321 226.474V237.526L911 232Z" fill="white"/>
<path d="M920.321 226.474H930.679V237.526H920.321V226.474Z" fill="white"/>
<path d="M1043.5 608L1048.68 617.474H1038.32L1043.5 608Z" fill="white"/>
<path d="M1043.5 638L1048.68 628.526H1038.32L1043.5 638Z" fill="white"/>
<path d="M1058 623L1048.68 628.526V617.474L1058 623Z" fill="white"/>
<path d="M1029 623L1038.32 617.474V628.526L1029 623Z" fill="white"/>
<path d="M1038.32 617.474H1048.68V628.526H1038.32V617.474Z" fill="white"/>
<path d="M762.5 419L767.679 428.474H757.321L762.5 419Z" fill="white"/>
<path d="M762.5 449L767.679 439.526H757.321L762.5 449Z" fill="white"/>
<path d="M777 434L767.679 439.526V428.474L777 434Z" fill="white"/>
<path d="M748 434L757.321 428.474V439.526L748 434Z" fill="white"/>
<path d="M757.321 428.474H767.679V439.526H757.321V428.474Z" fill="white"/>
<path d="M645.5 118L650.679 127.474H640.321L645.5 118Z" fill="white"/>
<path d="M645.5 148L650.679 138.526H640.321L645.5 148Z" fill="white"/>
<path d="M660 133L650.679 138.526V127.474L660 133Z" fill="white"/>
<path d="M631 133L640.321 127.474V138.526L631 133Z" fill="white"/>
<path d="M640.321 127.474H650.679V138.526H640.321V127.474Z" fill="white"/>
<path d="M182.5 751L187.679 760.474H177.321L182.5 751Z" fill="white"/>
<path d="M182.5 781L187.679 771.526H177.321L182.5 781Z" fill="white"/>
<path d="M197 766L187.679 771.526V760.474L197 766Z" fill="white"/>
<path d="M168 766L177.321 760.474V771.526L168 766Z" fill="white"/>
<path d="M177.321 760.474H187.679V771.526H177.321V760.474Z" fill="white"/>
<path d="M20.5 509L25.6786 518.474H15.3214L20.5 509Z" fill="white"/>
<path d="M20.5 539L25.6786 529.526H15.3214L20.5 539Z" fill="white"/>
<path d="M35 524L25.6786 529.526V518.474L35 524Z" fill="white"/>
<path d="M6 524L15.3214 518.474V529.526L6 524Z" fill="white"/>
<path d="M15.3214 518.474H25.6786V529.526H15.3214V518.474Z" fill="white"/>
<path d="M1193.5 479L1198.68 488.474H1188.32L1193.5 479Z" fill="white"/>
<path d="M1193.5 509L1198.68 499.526H1188.32L1193.5 509Z" fill="white"/>
<path d="M1208 494L1198.68 499.526V488.474L1208 494Z" fill="white"/>
<path d="M1179 494L1188.32 488.474V499.526L1179 494Z" fill="white"/>
<path d="M1188.32 488.474H1198.68V499.526H1188.32V488.474Z" fill="white"/>
<path d="M134.5 287L139.679 296.474H129.321L134.5 287Z" fill="white"/>
<path d="M134.5 317L139.679 307.526H129.321L134.5 317Z" fill="white"/>
<path d="M149 302L139.679 307.526V296.474L149 302Z" fill="white"/>
<path d="M120 302L129.321 296.474V307.526L120 302Z" fill="white"/>
<path d="M129.321 296.474H139.679V307.526H129.321V296.474Z" fill="white"/>
<path d="M477.5 826L482.679 835.474H472.321L477.5 826Z" fill="white"/>
<path d="M477.5 856L482.679 846.526H472.321L477.5 856Z" fill="white"/>
<path d="M492 841L482.679 846.526V835.474L492 841Z" fill="white"/>
<path d="M463 841L472.321 835.474V846.526L463 841Z" fill="white"/>
<path d="M472.321 835.474H482.679V846.526H472.321V835.474Z" fill="white"/>
<path d="M477.5 653L482.679 662.474H472.321L477.5 653Z" fill="white"/>
<path d="M477.5 683L482.679 673.526H472.321L477.5 683Z" fill="white"/>
<path d="M492 668L482.679 673.526V662.474L492 668Z" fill="white"/>
<path d="M463 668L472.321 662.474V673.526L463 668Z" fill="white"/>
<path d="M472.321 662.474H482.679V673.526H472.321V662.474Z" fill="white"/>
<path d="M211.5 434L216.679 443.474H206.321L211.5 434Z" fill="white"/>
<path d="M211.5 464L216.679 454.526H206.321L211.5 464Z" fill="white"/>
<path d="M226 449L216.679 454.526V443.474L226 449Z" fill="white"/>
<path d="M197 449L206.321 443.474V454.526L197 449Z" fill="white"/>
<path d="M206.321 443.474H216.679V454.526H206.321V443.474Z" fill="white"/>
<path d="M1116.5 826L1121.68 835.474H1111.32L1116.5 826Z" fill="white"/>
<path d="M1116.5 856L1121.68 846.526H1111.32L1116.5 856Z" fill="white"/>
<path d="M1131 841L1121.68 846.526V835.474L1131 841Z" fill="white"/>
<path d="M1102 841L1111.32 835.474V846.526L1102 841Z" fill="white"/>
<path d="M1111.32 835.474H1121.68V846.526H1111.32V835.474Z" fill="white"/>
<path d="M751.5 608L756.679 617.474H746.321L751.5 608Z" fill="white"/>
<path d="M751.5 638L756.679 628.526H746.321L751.5 638Z" fill="white"/>
<path d="M766 623L756.679 628.526V617.474L766 623Z" fill="white"/>
<path d="M737 623L746.321 617.474V628.526L737 623Z" fill="white"/>
<path d="M746.321 617.474H756.679V628.526H746.321V617.474Z" fill="white"/>
<path d="M1352.5 317L1357.68 326.474H1347.32L1352.5 317Z" fill="white"/>
<path d="M1352.5 347L1357.68 337.526H1347.32L1352.5 347Z" fill="white"/>
<path d="M1367 332L1357.68 337.526V326.474L1367 332Z" fill="white"/>
<path d="M1338 332L1347.32 326.474V337.526L1338 332Z" fill="white"/>
<path d="M1347.32 326.474H1357.68V337.526H1347.32V326.474Z" fill="white"/>
<path d="M780.5 811L785.679 820.474H775.321L780.5 811Z" fill="white"/>
<path d="M780.5 841L785.679 831.526H775.321L780.5 841Z" fill="white"/>
<path d="M795 826L785.679 831.526V820.474L795 826Z" fill="white"/>
<path d="M766 826L775.321 820.474V831.526L766 826Z" fill="white"/>
<path d="M775.321 820.474H785.679V831.526H775.321V820.474Z" fill="white"/>
<path d="M1431.5 781L1436.68 790.474H1426.32L1431.5 781Z" fill="white"/>
<path d="M1431.5 811L1436.68 801.526H1426.32L1431.5 811Z" fill="white"/>
<path d="M1446 796L1436.68 801.526V790.474L1446 796Z" fill="white"/>
<path d="M1417 796L1426.32 790.474V801.526L1417 796Z" fill="white"/>
<path d="M1426.32 790.474H1436.68V801.526H1426.32V790.474Z" fill="white"/>
<path d="M1145.5 6L1150.68 15.4737H1140.32L1145.5 6Z" fill="white"/>
<path d="M1145.5 36L1150.68 26.5263H1140.32L1145.5 36Z" fill="white"/>
<path d="M1160 21L1150.68 26.5263V15.4737L1160 21Z" fill="white"/>
<path d="M1131 21L1140.32 15.4737V26.5263L1131 21Z" fill="white"/>
<path d="M1140.32 15.4737H1150.68V26.5263H1140.32V15.4737Z" fill="white"/>
</g>
<defs>
<filter id="filter0_f_77_112" x="0.5" y="0.5" width="1451" height="861" filterUnits="userSpaceOnUse" color-interpolation-filters="sRGB">
<feFlood flood-opacity="0" result="BackgroundImageFix"/>
<feBlend mode="normal" in="SourceGraphic" in2="BackgroundImageFix" result="shape"/>
<feGaussianBlur stdDeviation="2.75" result="effect1_foregroundBlur_77_112"/>
</filter>
</defs>
</svg>
