<svg width="1006" height="597" viewBox="0 0 1006 597" fill="none" xmlns="http://www.w3.org/2000/svg">
<g filter="url(#filter0_f_15_281)">
<path d="M722 285C722 287.761 724.239 290 727 290C729.761 290 732 287.761 732 285C732 282.239 729.761 280 727 280C724.239 280 722 282.239 722 285Z" fill="white"/>
<path d="M681 29C681 31.7614 683.239 34 686 34C688.761 34 691 31.7614 691 29C691 26.2386 688.761 24 686 24C683.239 24 681 26.2386 681 29Z" fill="white"/>
<path d="M503 578C503 580.761 505.239 583 508 583C510.761 583 513 580.761 513 578C513 575.239 510.761 573 508 573C505.239 573 503 575.239 503 578Z" fill="white"/>
<path d="M982 166C982 168.761 984.239 171 987 171C989.761 171 992 168.761 992 166C992 163.239 989.761 161 987 161C984.239 161 982 163.239 982 166Z" fill="white"/>
<path d="M458 425C458 427.761 460.239 430 463 430C465.761 430 468 427.761 468 425C468 422.239 465.761 420 463 420C460.239 420 458 422.239 458 425Z" fill="white"/>
<path d="M202 96C202 98.7614 204.239 101 207 101C209.761 101 212 98.7614 212 96C212 93.2386 209.761 91 207 91C204.239 91 202 93.2386 202 96Z" fill="white"/>
<path d="M850 86C850 88.7614 852.239 91 855 91C857.761 91 860 88.7614 860 86C860 83.2386 857.761 81 855 81C852.239 81 850 83.2386 850 86Z" fill="white"/>
<path d="M972 314C972 316.761 974.239 319 977 319C979.761 319 982 316.761 982 314C982 311.239 979.761 309 977 309C974.239 309 972 311.239 972 314Z" fill="white"/>
<path d="M727 544C727 546.761 729.239 549 732 549C734.761 549 737 546.761 737 544C737 541.239 734.761 539 732 539C729.239 539 727 541.239 727 544Z" fill="white"/>
<path d="M967 507C967 509.761 969.239 512 972 512C974.761 512 977 509.761 977 507C977 504.239 974.761 502 972 502C969.239 502 967 504.239 967 507Z" fill="white"/>
<path d="M237 262C237 264.761 239.239 267 242 267C244.761 267 247 264.761 247 262C247 259.239 244.761 257 242 257C239.239 257 237 259.239 237 262Z" fill="white"/>
<path d="M95 447C95 449.761 97.2386 452 100 452C102.761 452 105 449.761 105 447C105 444.239 102.761 442 100 442C97.2386 442 95 444.239 95 447Z" fill="white"/>
<path d="M295 544C295 546.761 297.239 549 300 549C302.761 549 305 546.761 305 544C305 541.239 302.761 539 300 539C297.239 539 295 541.239 295 544Z" fill="white"/>
<path d="M860 224C860 226.761 862.239 229 865 229C867.761 229 870 226.761 870 224C870 221.239 867.761 219 865 219C862.239 219 860 221.239 860 224Z" fill="white"/>
<path d="M14 246C14 248.761 16.2386 251 19 251C21.7614 251 24 248.761 24 246C24 243.239 21.7614 241 19 241C16.2386 241 14 243.239 14 246Z" fill="white"/>
<path d="M870 457C870 459.761 872.239 462 875 462C877.761 462 880 459.761 880 457C880 454.239 877.761 452 875 452C872.239 452 870 454.239 870 457Z" fill="white"/>
<path d="M453 81C453 83.7614 455.239 86 458 86C460.761 86 463 83.7614 463 81C463 78.2386 460.761 76 458 76C455.239 76 453 78.2386 453 81Z" fill="white"/>
<path d="M592 368C592 370.761 594.239 373 597 373C599.761 373 602 370.761 602 368C602 365.239 599.761 363 597 363C594.239 363 592 365.239 592 368Z" fill="white"/>
<path d="M779 400C779 402.761 781.239 405 784 405C786.761 405 789 402.761 789 400C789 397.239 786.761 395 784 395C781.239 395 779 397.239 779 400Z" fill="white"/>
<path d="M443 256C443 258.761 445.239 261 448 261C450.761 261 453 258.761 453 256C453 253.239 450.761 251 448 251C445.239 251 443 253.239 443 256Z" fill="white"/>
<path d="M587 171C587 173.761 589.239 176 592 176C594.761 176 597 173.761 597 171C597 168.239 594.761 166 592 166C589.239 166 587 168.239 587 171Z" fill="white"/>
<path d="M285 390C285 392.761 287.239 395 290 395C292.761 395 295 392.761 295 390C295 387.239 292.761 385 290 385C287.239 385 285 387.239 285 390Z" fill="white"/>
<path d="M935 19C935 21.7614 937.239 24 940 24C942.761 24 945 21.7614 945 19C945 16.2386 942.761 14 940 14C937.239 14 935 16.2386 935 19Z" fill="white"/>
<path d="M721 285C721 288.314 723.686 291 727 291C730.314 291 733 288.314 733 285C733 281.686 730.314 279 727 279C723.686 279 721 281.686 721 285ZM680 29C680 32.3137 682.686 35 686 35C689.314 35 692 32.3137 692 29C692 25.6863 689.314 23 686 23C682.686 23 680 25.6863 680 29ZM502 578C502 581.314 504.686 584 508 584C511.314 584 514 581.314 514 578C514 574.686 511.314 572 508 572C504.686 572 502 574.686 502 578ZM981 166C981 169.314 983.686 172 987 172C990.314 172 993 169.314 993 166C993 162.686 990.314 160 987 160C983.686 160 981 162.686 981 166ZM457 425C457 428.314 459.686 431 463 431C466.314 431 469 428.314 469 425C469 421.686 466.314 419 463 419C459.686 419 457 421.686 457 425ZM201 96C201 99.3137 203.686 102 207 102C210.314 102 213 99.3137 213 96C213 92.6863 210.314 90 207 90C203.686 90 201 92.6863 201 96ZM849 86C849 89.3137 851.686 92 855 92C858.314 92 861 89.3137 861 86C861 82.6863 858.314 80 855 80C851.686 80 849 82.6863 849 86ZM971 314C971 317.314 973.686 320 977 320C980.314 320 983 317.314 983 314C983 310.686 980.314 308 977 308C973.686 308 971 310.686 971 314ZM726 544C726 547.314 728.686 550 732 550C735.314 550 738 547.314 738 544C738 540.686 735.314 538 732 538C728.686 538 726 540.686 726 544ZM966 507C966 510.314 968.686 513 972 513C975.314 513 978 510.314 978 507C978 503.686 975.314 501 972 501C968.686 501 966 503.686 966 507ZM236 262C236 265.314 238.686 268 242 268C245.314 268 248 265.314 248 262C248 258.686 245.314 256 242 256C238.686 256 236 258.686 236 262ZM94 447C94 450.314 96.6863 453 100 453C103.314 453 106 450.314 106 447C106 443.686 103.314 441 100 441C96.6863 441 94 443.686 94 447ZM294 544C294 547.314 296.686 550 300 550C303.314 550 306 547.314 306 544C306 540.686 303.314 538 300 538C296.686 538 294 540.686 294 544ZM859 224C859 227.314 861.686 230 865 230C868.314 230 871 227.314 871 224C871 220.686 868.314 218 865 218C861.686 218 859 220.686 859 224ZM13 246C13 249.314 15.6863 252 19 252C22.3137 252 25 249.314 25 246C25 242.686 22.3137 240 19 240C15.6863 240 13 242.686 13 246ZM869 457C869 460.314 871.686 463 875 463C878.314 463 881 460.314 881 457C881 453.686 878.314 451 875 451C871.686 451 869 453.686 869 457ZM452 81C452 84.3137 454.686 87 458 87C461.314 87 464 84.3137 464 81C464 77.6863 461.314 75 458 75C454.686 75 452 77.6863 452 81ZM591 368C591 371.314 593.686 374 597 374C600.314 374 603 371.314 603 368C603 364.686 600.314 362 597 362C593.686 362 591 364.686 591 368ZM778 400C778 403.314 780.686 406 784 406C787.314 406 790 403.314 790 400C790 396.686 787.314 394 784 394C780.686 394 778 396.686 778 400ZM442 256C442 259.314 444.686 262 448 262C451.314 262 454 259.314 454 256C454 252.686 451.314 250 448 250C444.686 250 442 252.686 442 256ZM586 171C586 174.314 588.686 177 592 177C595.314 177 598 174.314 598 171C598 167.686 595.314 165 592 165C588.686 165 586 167.686 586 171ZM284 390C284 393.314 286.686 396 290 396C293.314 396 296 393.314 296 390C296 386.686 293.314 384 290 384C286.686 384 284 386.686 284 390ZM934 19C934 22.3137 936.686 25 940 25C943.314 25 946 22.3137 946 19C946 15.6863 943.314 13 940 13C936.686 13 934 15.6863 934 19Z" stroke="white" stroke-opacity="0.37" stroke-width="2"/>
</g>
<defs>
<filter id="filter0_f_15_281" x="0" y="0" width="1006" height="597" filterUnits="userSpaceOnUse" color-interpolation-filters="sRGB">
<feFlood flood-opacity="0" result="BackgroundImageFix"/>
<feBlend mode="normal" in="SourceGraphic" in2="BackgroundImageFix" result="shape"/>
<feGaussianBlur stdDeviation="6" result="effect1_foregroundBlur_15_281"/>
</filter>
</defs>
</svg>
